<svg width="16" height="16" viewBox="0 0 16 16" fill="none" xmlns="http://www.w3.org/2000/svg">
<g id="waving_hand" clip-path="url(#clip0_4349_3807)">
<path id="Vector" d="M4.05474 6.50911C3.92141 6.64245 3.92141 6.84911 4.05474 6.98245C4.76807 7.69578 4.82807 8.81578 4.24141 9.59578C4.14141 9.72911 4.16141 9.90911 4.27474 10.0291C4.42141 10.1758 4.65474 10.1558 4.78141 9.99578C5.49474 9.04245 5.48807 7.70912 4.75474 6.76245L9.83474 1.68245C10.1614 1.35578 10.6881 1.35578 11.0147 1.68245C11.3414 2.00911 11.3414 2.53578 11.0147 2.86245L7.59474 6.28245C7.46141 6.41578 7.46141 6.62245 7.59474 6.75578C7.72807 6.88911 7.93474 6.88911 8.06807 6.75578L12.4281 2.39578C12.7547 2.06911 13.2814 2.06911 13.6081 2.39578C13.9347 2.72245 13.9347 3.24911 13.6081 3.57578L9.24807 7.93578C9.11474 8.06911 9.11474 8.27578 9.24807 8.40911C9.38141 8.54245 9.58807 8.54245 9.72141 8.40911L13.3747 4.75578C13.7014 4.42911 14.2281 4.42911 14.5547 4.75578C14.8814 5.08245 14.8814 5.60911 14.5547 5.93578L10.4281 10.0624C10.2947 10.1958 10.2947 10.4024 10.4281 10.5358C10.5614 10.6691 10.7681 10.6691 10.9014 10.5358L13.6147 7.82245C13.9414 7.49578 14.4681 7.49578 14.7947 7.82245C15.1214 8.14912 15.1214 8.67578 14.7947 9.00245L10.0814 13.7158C7.93474 15.8624 4.44807 15.8624 2.30141 13.7158C0.15474 11.5691 0.15474 8.08245 2.30141 5.93578L5.36807 2.86911C5.69474 2.54245 6.22141 2.54245 6.54807 2.86911C6.87474 3.19578 6.87474 3.72245 6.54807 4.04911L4.05474 6.50911ZM4.67474 1.17578C4.67474 0.902448 4.44807 0.675781 4.17474 0.675781C4.14807 0.675781 4.12807 0.675781 4.10141 0.682448C2.34807 0.935781 0.968073 2.32245 0.71474 4.06911C0.71474 4.08911 0.708073 4.11578 0.708073 4.14245C0.708073 4.41578 0.93474 4.64245 1.20807 4.64245C1.46141 4.64245 1.66807 4.45578 1.70141 4.21578C1.88807 2.90245 2.92807 1.86245 4.24141 1.67578C4.48807 1.63578 4.67474 1.42911 4.67474 1.17578ZM11.3414 14.7758C11.3414 15.0491 11.5681 15.2758 11.8414 15.2758C11.8681 15.2758 11.8881 15.2758 11.9147 15.2691C13.6681 15.0158 15.0481 13.6291 15.3014 11.8824C15.3014 11.8624 15.3081 11.8358 15.3081 11.8091C15.3081 11.5358 15.0814 11.3091 14.8081 11.3091C14.5547 11.3091 14.3481 11.4958 14.3147 11.7358C14.1281 13.0491 13.0881 14.0891 11.7747 14.2758C11.5281 14.3158 11.3414 14.5224 11.3414 14.7758Z" fill="#BABABA"/>
</g>
<defs>
<clipPath id="clip0_4349_3807">
<rect width="16" height="16" fill="white"/>
</clipPath>
</defs>
</svg>
